{"title":"Adult.Beginners.2014.LIMITED.BRRip.XViD-Shelby","uid":12152816,"size":784557587,"categoryP":"video","categoryS":"movies","magnet":"?xt=urn:btih:a029127ef389cf4ee9245aa9b17bf8fe92ae4a4b&amp;dn=Adult.Beginners.2014.LIMITED.BRRip.XViD-Shelby&amp;tr=udp%3A%2F%2Ftracker.openbittorrent.com%3A80&amp;tr=udp%3A%2F%2Fopen.demonii.com%3A1337&amp;tr=udp%3A%2F%2Ftracker.coppersurfer.tk%3A6969&amp;tr=udp%3A%2F%2Fexodus.desync.com%3A6969","seeders":0,"leechers":1,"uploader":null,"files":2,"time":1437680343,"description":"Adult Beginners 2014 LIMITED BRRip XViD -Shelby\n\nGeneral\nComplete name                            : Adult.Beginners.2014.LIMITED.BRRip.XViD-Shelby.avi\nFormat                                   : AVI\nFormat/Info                              : Audio Video Interleave\nFile size                                : 748 MiB\nDuration                                 : 1h 32mn\nOverall bit rate                         : 1 136 Kbps\nWriting application                      : Lavf55.19.104\n\nVideo\nID                                       : 0\nFormat                                   : MPEG-4 Visual\nFormat profile                           : Simple@L3\nFormat settings, BVOP                    : No\nFormat settings, QPel                    : No\nFormat settings, GMC                     : No warppoints\nFormat settings, Matrix                  : Default (H.263)\nCodec ID                                 : XVID\nCodec ID/Hint                            : XviD\nDuration                                 : 1h 32mn\nBit rate                                 : 996 Kbps\nWidth                                    : 720 pixels\nHeight                                   : 384 pixels\nDisplay aspect ratio                     : 1.85:1\nFrame rate                               : 23.976 fps\nColor space                              : YUV\nChroma subsampling                       : 4:2:0\nBit depth                                : 8 bits\nScan type                                : Progressive\nCompression mode                         : Lossy\nBits/(Pixel*Frame)                       : 0.150\nStream size                              : 656 MiB (88%)\nWriting library                          : XviD 64\n\nAudio\nID                                       : 1\nFormat                                   : MPEG Audio\nFormat version                           : Version 1\nFormat profile                           : Layer 3\nMode                                     : Joint stereo\nMode extension                           : MS Stereo\nCodec ID                                 : 55\nCodec ID/Hint                            : MP3\nDuration                                 : 1h 32mn\nBit rate mode                            : Constant\nBit rate                                 : 128 Kbps\nChannel count                            : 2 channels\nSampling rate                            : 48.0 KHz\nCompression mode                         : Lossy\nStream size                              : 84.3 MiB (11%)\nAlignment                                : Aligned on interleaves\nInterleave, duration                     : 24 ms (0.58 video frame)\nWriting library                          : LAME3.99.5\n\n\nComedy:Drama\n\nA young, narcissistic entrepreneur crashes and burns on the eve of his company's big launch. With his entire life in total disarray, he leaves Manhattan to move in with his estranged ... See full summary Â» \n\n\nDirector: Ross Katz \n\nWriters: Jeff Cox (screenplay), Liz Flahive (screenplay), 1 more credit Â» \n\nStars: Nick Kroll, Rose Byrne, Bobby Cannavale\n\n &lt;a href=&quot;\nhttp://www.imdb.com/title/tt3318750/&quot; rel=&quot;nofollow&quot; target=&quot;_NEW&quot;&gt;\nhttp://www.imdb.com/title/tt3318750/&lt;/a&gt;","torrent":{"xt":"urn:btih:a029127ef389cf4ee9245aa9b17bf8fe92ae4a4b","amp;dn":"Adult.Beginners.2014.LIMITED.BRRip.XViD-Shelby","amp;tr":["udp%3A%2F%2Ftracker.openbittorrent.com%3A80","udp%3A%2F%2Fopen.demonii.com%3A1337","udp%3A%2F%2Ftracker.coppersurfer.tk%3A6969","udp%3A%2F%2Fexodus.desync.com%3A6969"],"infoHash":"a029127ef389cf4ee9245aa9b17bf8fe92ae4a4b","infoHashBuffer":{"type":"Buffer","data":[160,41,18,126,243,137,207,78,233,36,90,169,177,123,248,254,146,174,74,75]},"announce":[],"urlList":[]}}